
            <!--?xml version="1.0" encoding="utf-8"?-->
      
      <!-- Generator: Adobe Illustrator 21.0.2, SVG Export Plug-In . SVG Version: 6.00 Build 0)  -->
      <svg version="1.1" id="Work_area" xmlns="http://www.w3.org/2000/svg" xmlns:xlink="http://www.w3.org/1999/xlink" x="0px" y="0px" width="512px" height="512px" viewBox="0 0 512 512" enable-background="new 0 0 512 512" xml:space="preserve">
      <polygon fill="#353535" points="254.95543,255.13036 294.60776,255.13036 255.27223,172.97562 254.95543,173.72189 "></polygon>
      <path fill="#353535" d="M255.39951,56L67.19602,122.23135l29.74089,246.56406L255.59283,456l159.478-88.38428l29.73315-246.55621
      	L255.39951,56z M335.14914,348.83322l-25.54218-59.1554h-54.65154v145.48734L113.7999,356.87653L88.31503,136.36189
      	l166.64041-59.39542v13.01791l0.00487-0.00826l120.40677,258.85712H335.14914z"></path>
      <polygon fill="#353535" points="254.9603,89.97612 254.6396,172.97174 215.34686,255.19443 254.86896,255.19443 254.9603,289.62576 
      	200.30876,289.67783 174.76259,348.84537 133.23682,349.61444 "></polygon>
      </svg>
      
          