
            <!--?xml version="1.0" encoding="utf-8"?-->
      
      <!-- Generator: Adobe Illustrator 21.0.2, SVG Export Plug-In . SVG Version: 6.00 Build 0)  -->
      <svg version="1.1" id="Work_area" xmlns="http://www.w3.org/2000/svg" xmlns:xlink="http://www.w3.org/1999/xlink" x="0px" y="0px" width="512px" height="512px" viewBox="0 0 512 512" enable-background="new 0 0 512 512" xml:space="preserve">
      <path fill="#353535" d="M256.46359,196.86427c33.06516,0,59.87274,26.80656,59.87274,59.87175
      	c0,33.06122-26.80759,59.86789-59.87274,59.86789c-33.07306,0-59.87669-26.80667-59.87669-59.86789
      	C196.5869,223.67084,223.39053,196.86427,256.46359,196.86427L256.46359,196.86427"></path>
      <path fill="#353535" d="M315.4028,196.31354c15.45795,15.60405,24.95721,37.10738,24.84576,60.81323
      	c-0.08783,19.19025-6.59604,37.81003-18.50531,52.87314l-80.74155,137.44357
      	c105.97018,8.00723,198.37323-71.40204,206.38947-177.37912c1.88977-25.01257-1.15665-50.06255-8.82928-73.76265H315.4028V196.31354
      	z"></path>
      <path fill="#353535" d="M275.2037,338.93808c-25.23256,5.93292-52.84149,0.42242-74.38522-17.35266
      	c-12.43425-10.24139-21.72635-23.79279-26.83133-39.07104L96.67491,148.49313
      	c-59.17418,88.2791-35.58957,207.81543,52.69052,266.99051c19.68459,13.20001,41.57867,22.57306,64.53755,27.78952
      	L275.2037,338.93808z"></path>
      <path fill="#353535" d="M170.31013,84.15295c-21.45592,10.66773-40.63028,25.21771-56.64573,42.8112l60.21917,104.3685
      	c8.07138-26.0033,28.33125-47.74934,56.27072-56.55196c7.95993-2.49084,16.24747-3.82707,24.58624-3.94742h173.53143
      	C380.97363,75.65421,265.48032,36.85156,170.31013,84.15295z"></path>
      </svg>
      
          