
            <!--?xml version="1.0" encoding="utf-8"?-->
      
      <!-- Generator: Adobe Illustrator 21.0.2, SVG Export Plug-In . SVG Version: 6.00 Build 0)  -->
      <svg version="1.1" id="Work_area" xmlns="http://www.w3.org/2000/svg" xmlns:xlink="http://www.w3.org/1999/xlink" x="0px" y="0px" width="512px" height="512px" viewBox="0 0 512 512" enable-background="new 0 0 512 512" xml:space="preserve">
      <rect id="XMLID_266_" x="45.52811" y="215.75876" fill="#353535" width="46.87975" height="46.88196"></rect>
      <rect id="XMLID_267_" x="110.08271" y="215.75876" fill="#353535" width="46.88418" height="46.88196"></rect>
      <rect id="XMLID_268_" x="174.64394" y="215.75876" fill="#353535" width="46.87975" height="46.88196"></rect>
      <rect id="XMLID_269_" x="239.20074" y="215.75876" fill="#353535" width="46.88196" height="46.88196"></rect>
      <rect id="XMLID_270_" x="239.20074" y="86.64072" fill="#353535" width="46.88196" height="46.88196"></rect>
      <rect id="XMLID_271_" x="303.75754" y="215.75876" fill="#353535" width="46.88196" height="46.88196"></rect>
      <path id="XMLID_272_" fill="#353535" d="M469.81442,241.09349c-15.07657-8.70142-35.15802-9.89134-52.26212-4.86067
      	c-2.1058-18.17862-14.05249-34.12573-28.25745-45.53876l-5.64163-4.53513c0,0-15.78329,14.97037-15.78329,48.82111
      	c0,10.37643,4.20132,20.81396,10.55997,29.11566c-5.21399,14.12527-41.16504,12.12183-69.28375,12.12183
      	c-62.43022,0-272.73593,0-272.73593,0c-7.30029,120.17822,84.48189,149.1409,144.0278,149.1409
      	c102.94174,0,187.84195-45.98383,226.83865-143.11295C467.54092,287.47931,476,244.66225,476,244.66225L469.81442,241.09349z
      	 M182.74879,303.54904c9.71848,0,17.59833,7.88321,17.59833,17.60168s-7.87985,17.59833-17.59833,17.59833
      	c-9.72183,0-17.60168-7.87985-17.60168-17.59833S173.02696,303.54904,182.74879,303.54904z M74.6589,359.18024
      	c21.14529,6.42316,72.54104-1.68521,82.14272-6.56369c10.14717,23.39905,23.013,37.76346,56.23965,53.53098
      	C129.25795,409.44751,100.65794,390.19751,74.6589,359.18024z"></path>
      <rect id="XMLID_276_" x="110.08271" y="151.20195" fill="#353535" width="46.88418" height="46.87753"></rect>
      <rect id="XMLID_277_" x="174.64394" y="151.20195" fill="#353535" width="46.87975" height="46.87753"></rect>
      <rect id="XMLID_278_" x="239.20074" y="151.20195" fill="#353535" width="46.88196" height="46.87753"></rect>
      </svg>
      
          