
            <!--?xml version="1.0" encoding="utf-8"?-->
      
      <!-- Generator: Adobe Illustrator 21.0.2, SVG Export Plug-In . SVG Version: 6.00 Build 0)  -->
      <svg version="1.1" id="Work_area" xmlns="http://www.w3.org/2000/svg" xmlns:xlink="http://www.w3.org/1999/xlink" x="0px" y="0px" width="512px" height="512px" viewBox="0 0 512 512" enable-background="new 0 0 512 512" xml:space="preserve">
      <path fill="#353535" d="M448.68396,205.91281c0.63641,13.54832-5.90329,19.49113-5.90329,19.49113
      	c2.22528-18.66917,2.04266-39.95923-5.11679-58.06189C425.34021,136.13316,405.0744,122.12,405.0744,122.12l1.24435,5.2135
      	c0,0-9.05521-15.62263-27.37988-24.0108c0,0,2.2095,4.12497,1.48123,7.34996C346.15598,81.18389,301.93759,64,255.35072,64
      	c-56.20454,0-106.84241,24.38683-141.98679,63.18253c-5.15125-6.83096-9.57433-15.45589-9.94731-25.05397
      	c0,0-0.03062,0.01981-0.08488,0.06618c-0.00788-0.13622-0.0385-0.28325-0.0385-0.42239c0,0-23.4918,18.04839-19.97173,67.26021
      	c-0.01577,0.78648-0.03062,1.5464-0.05032,2.2756c-6.35328,8.62109-9.50916,15.87334-9.74895,17.48189
      	c-5.62903,11.46321-11.34285,28.72107-15.9948,54.9138c0,0,2.91516-9.22195,8.74539-20.10684
      	c-0.23282,1.35684-0.51112,2.70984-0.72131,4.07071c-3.89901,14.69507-6.54285,35.93784-4.60466,65.94177
      	c0,0,0.58519-7.60956,2.6596-18.56842c1.61937,21.28613,8.70983,47.55688,26.63877,78.4519
      	c33.14304,57.14603,83.44833,86.99899,139.34993,93.22101c0.24869,0.03061,0.49637,0.06125,0.73717,0.0849
      	c1.29085,0.14014,2.58948,0.25958,3.89114,0.37601c1.57005,0.14703,3.14404,0.2674,4.72198,0.37601
      	c0.37996,0.02365,0.7599,0.05426,1.13199,0.07004c9.65617,0.59308,19.41704,0.49637,29.23613-0.33359
      	c0.0849-0.00787,0.15491-0.00787,0.23294-0.01575c0.18552-0.01486,0.36407-0.03458,0.53879-0.05032
      	c12.09772-0.82108,24.27728-2.64767,36.43423-5.57761c110.61804-26.73651,142.18808-123.80228,147.44098-184.72101
      	C456.51453,227.26018,448.68396,205.91281,448.68396,205.91281z M385.11057,229.15189
      	c-5.78384-13.0174-15.04047-19.96375-15.04047-19.96375s6.6553,55.92926-2.89243,80.42068c0,0-1.73581-8.38818-4.9144-14.17596
      	c-10.42014,64.80292-34.1369,67.40421-34.1369,67.40421l-0.38681-8.09805c0,0-22.79413,21.67307-52.65002,21.02179
      	c-35.09799-0.77963-57.46478-18.51022-70.88881-30.15097c15.04047,3.27136,43.575-0.5083,56.21254-9.9158
      	c0.01575-0.0119,0.03061-0.02374,0.04639-0.03555c13.72302-9.38092,21.85553-16.23056,29.14337-14.61414
      	c7.30264,1.6322,12.16772-5.69412,6.49637-12.19543c-5.67825-6.52396-19.46741-15.46671-38.1207-10.58182
      	c-13.1526,3.43811-29.45329,17.99402-54.33255,3.25946c-19.02527-11.27658-20.88252-20.64566-21.0641-27.14992
      	c0.47272-2.33391,1.06186-4.52473,1.77528-6.50931c2.19376-6.13217,8.84605-8.00124,12.55559-9.45387
      	c6.29114,1.07762,11.71877,3.04239,17.40894,5.95757c0.07004-1.88788,0.08974-4.41519-0.01091-7.25629
      	c0.54578-1.08157,0.20523-4.34607-0.6631-8.33089c-0.50436-4.00461-1.34117-8.13655-2.63586-11.90823
      	c0.03052-0.00394,0.06215-0.00394,0.09277-0.02365c0.07791-0.04639,0.14702-0.12732,0.17856-0.26749
      	c0.27142-1.22859,2.38716-3.25955,5.41873-5.61711c5.9704-4.64012,24.2122-13.19897,29.14348-19.56409
      	c4.94601-6.35327,8.6595-12.29608,5.98514-17.06848c-2.67435-4.7713-10.55919-3.97693-36.08972-4.04999
      	c-12.8931-0.03548-16.44379-10.07172-18.69968-14.9368c3.11252-17.18782,12.12135-29.4257,26.88646-37.73688
      	c0.27142-0.15097,0.2023-0.28709-0.1234-0.37197c2.99217-1.75266-34.87294-0.07407-52.27783,22.06474
      	c-15.45206-3.84566-28.91843-3.5901-40.51685-0.86046c-0.82207-0.03163-1.74467-0.09277-2.71376-0.19443
      	c31.70525-34.27502,76.91638-55.78124,127.05484-55.78124c36.40361,0,71.19875,11.63287,99.97701,32.0072
      	c13.71899,13.87402,22.08453,28.13194,27.18152,35.12467c0,0-17.93582-16.48613-37.89178-19.95587
      	C343.7106,129.89539,386.56024,156.25587,385.11057,229.15189z"></path>
      </svg>
      
          